<?xml version="1.0" encoding="UTF-8"?>
<!DOCTYPE svg PUBLIC "-//W3C//DTD SVG 1.1//EN" "http://www.w3.org/Graphics/SVG/1.1/DTD/svg11.dtd">
<!-- Creator: CorelDRAW -->
<svg xmlns="http://www.w3.org/2000/svg" xml:space="preserve" width="83.0973mm" height="36.1219mm" version="1.1" style="shape-rendering:geometricPrecision; text-rendering:geometricPrecision; image-rendering:optimizeQuality; fill-rule:evenodd; clip-rule:evenodd"
viewBox="0 0 11397.85 4954.58"
 xmlns:xlink="http://www.w3.org/1999/xlink"
 xmlns:xodm="http://www.corel.com/coreldraw/odm/2003">
 <defs>
  <style type="text/css">
   <![CDATA[
    .fil0 {fill:#FEFEFE;fill-rule:nonzero}
    .fil1 {fill:#F68E34;fill-rule:nonzero}
   ]]>
  </style>
 </defs>
 <g id="Camada_x0020_1">
  <metadata id="CorelCorpID_0Corel-Layer"/>
  <g id="_2329406473440">
   <path class="fil0" d="M5397.52 2748.78l458.8 0 -230.46 -768.65 -228.33 768.65zm515.24 186.5l-571.79 0 -102.61 347.58c-18.12,2.73 -36.43,4.79 -54.48,6.32 -18.06,1.34 -36.25,2.06 -54.44,2.06 -19.46,0 -38.65,-0.71 -57.64,-2.06 -18.71,-1.54 -35.98,-3.59 -51.16,-6.32l490.01 -1505.87c18.13,-2.72 37.79,-4.94 58.69,-6.25 20.88,-1.41 42.47,-2.14 64.84,-2.14 19.53,0 39.78,0.73 60.76,2.14 20.85,1.32 41.24,3.54 60.78,6.25l487.94 1505.87c-16.79,2.73 -35.63,4.79 -56.55,6.32 -20.93,1.34 -41.18,2.06 -60.76,2.06 -18,0 -36.58,-0.71 -55.37,-2.06 -18.98,-1.54 -36.77,-3.59 -53.42,-6.32l-104.79 -347.58z"/>
   <path class="fil0" d="M6272.96 2208.44c19.53,-2.81 39.69,-4.87 60.76,-6.35 20.97,-1.26 39.85,-2.06 56.5,-2.06 18.19,0 38.12,0.8 59.71,2.06 21.58,1.48 40.16,3.54 55.43,6.35l293.35 885.89 295.2 -885.89c15.4,-2.81 32.8,-4.87 52.38,-6.35 19.57,-1.26 38.36,-2.06 56.55,-2.06 15.39,0 32.8,0.8 52.37,2.06 19.59,1.48 39.12,3.54 58.76,6.35l-419 1074.4c-18.11,2.73 -36.29,4.8 -54.36,6.39 -18.26,1.26 -35.05,2 -50.23,2 -15.53,0 -31.92,-0.74 -49.36,-2 -17.27,-1.59 -34.46,-3.66 -51.24,-6.39l-416.81 -1074.4z"/>
   <path class="fil0" d="M8084.54 2778.07c-20.93,-2.73 -47.44,-5.51 -79.55,-8.34 -32.12,-2.85 -59.35,-4.18 -81.75,-4.18 -86.54,0 -152.51,16.05 -197.95,48.1 -45.22,32.12 -68.02,81.09 -68.02,146.64 0,41.83 7.67,74.75 23.11,98.47 15.39,23.65 34.52,41.92 57.64,54.37 22.99,12.66 48.45,20.33 76.41,23.04 27.91,2.88 54.45,4.27 79.55,4.27 32.04,0 65.3,-1.66 99.54,-5.27 34.11,-3.4 64.56,-8.64 91.02,-15.71l0 -341.4zm0 -203.14c0,-82.28 -20.93,-139.65 -62.77,-171.62 -41.9,-32.26 -102.68,-48.31 -182.22,-48.31 -48.9,0 -94.74,3.92 -137.12,11.59 -42.7,7.67 -84.2,17.72 -124.64,30.31 -26.46,-46.05 -39.85,-101.21 -39.85,-165.36 47.49,-15.53 99.8,-27.25 157.02,-35.72 57.31,-8.24 112.47,-12.59 165.58,-12.59 139.43,0 245.63,31.78 318.4,95.41 72.41,63.49 108.67,164.97 108.67,304.75l0 672.26c-48.84,11.18 -108.02,22.63 -177.83,34.63 -69.95,11.78 -141.13,17.79 -213.74,17.79 -68.42,0 -130.13,-6.41 -185.28,-18.85 -55.22,-12.67 -102.01,-32.92 -140.3,-60.83 -38.38,-27.91 -68.17,-63.57 -89.17,-106.81 -20.77,-43.3 -31.31,-95.67 -31.31,-157.04 0,-60.04 12.21,-112.93 36.58,-158.24 24.47,-45.3 57.77,-83 99.55,-113.05 41.78,-30.04 90.06,-52.37 144.45,-66.89 54.55,-14.85 111.77,-22.12 171.89,-22.12 44.63,0 81.27,1 109.79,3.21 28.65,2.06 52.77,4.46 72.3,7.38l0 -39.9z"/>
   <path class="fil0" d="M2292.76 596.85c-1146.09,0 -2078.37,932.28 -2078.37,2078.44 0,1146.01 932.28,2078.44 2078.37,2078.44 1146.09,0 2078.37,-932.43 2078.37,-2078.44 0,-1146.16 -932.28,-2078.44 -2078.37,-2078.44zm0 4357.76c-1256.89,0 -2279.32,-1022.56 -2279.32,-2279.32 0,-1256.75 1022.42,-2279.38 2279.32,-2279.38 1256.88,0 2279.45,1022.63 2279.45,2279.38 0,1256.75 -1022.58,2279.32 -2279.45,2279.32z"/>
   <path class="fil0" d="M8639.46 2373.77l-163.22 0 -8.34 -29.24 360.12 -402.09 16.79 0 0 266.03 272.23 0c5.61,23.67 8.46,50.24 8.46,79.57 0,15.32 -0.8,30.05 -2.07,43.97 -1.47,13.91 -3.61,27.98 -6.39,41.77l-272.23 0 0 490.16c0,58.62 2.32,105.41 7.26,140.39 4.92,34.84 13.33,61.89 25.2,80.6 11.78,18.87 27.91,31.45 48.23,37.72 20.19,6.32 45.7,9.46 76.36,9.46 23.78,0 46.24,-1.74 67.03,-5.27 21.11,-3.54 39.69,-7.39 56.62,-11.6 9.72,27.99 15.6,56.65 17.72,86.03 2.07,29.11 3.06,55.03 3.06,77.55 -27.91,6.79 -57.16,12.13 -87.87,15.6 -30.66,3.53 -63.57,5.2 -98.41,5.2 -100.47,0 -179.08,-24.46 -235.65,-73.35 -56.43,-48.79 -84.89,-129.73 -84.89,-242.86l0 -609.62z"/>
   <path class="fil0" d="M10036.5 2641.97c0,-39.06 -5.18,-76.44 -15.58,-111.94 -10.73,-35.72 -25.92,-66.89 -46.25,-93.41 -20.19,-26.46 -46.02,-47.64 -77.41,-63.77 -31.52,-15.99 -68.68,-24.11 -112.06,-24.11 -85.22,0 -150.37,25.86 -195.81,77.48 -45.44,51.7 -73.01,123.52 -82.74,215.74l529.86 0zm-532 154.95c2.8,117.26 33.25,203.14 91.14,257.72 57.76,54.43 143.39,81.56 256.51,81.56 99.21,0 193.47,-17.34 282.82,-52.45 11.21,21.05 20.27,46.65 27.25,76.48 7,30.13 11.07,59.78 12.61,89.02 -46.18,19.71 -96.81,34.24 -151.92,43.99 -55.22,9.85 -116.26,14.84 -183.29,14.84 -97.73,0 -181.55,-13.66 -251.3,-40.97 -69.82,-27.12 -127.52,-65.62 -172.77,-115.2 -45.44,-49.42 -78.68,-108.19 -99.47,-175.88 -20.92,-67.76 -31.44,-142.11 -31.44,-223.05 0,-79.62 10.07,-153.91 30.31,-222.93 20.26,-69.24 51.37,-129.26 93.22,-180.23 41.83,-50.97 94.52,-91.46 158.16,-121.51 63.48,-29.92 138.44,-45.04 225.06,-45.04 74.08,0 139.06,12.61 194.83,37.77 55.83,25.11 102.58,59.69 140.37,103.53 37.64,43.99 66.35,96.47 85.88,157.24 19.53,60.76 29.17,126.6 29.17,197.82 0,19.64 -0.6,40.23 -2,61.89 -1.4,21.59 -2.8,40.11 -4.2,55.43l-730.94 0z"/>
   <path class="fil0" d="M10769.52 2725.77l341.38 -517.34c18.12,-2.83 36.24,-4.88 54.43,-6.27 18.26,-1.34 36.98,-2.14 56.63,-2.14 20.93,0 40.83,0.8 59.62,2.14 18.86,1.39 38.12,3.44 57.69,6.27l-341.37 502.61 399.94 571.79c-19.66,2.72 -38.38,4.86 -56.43,6.38 -18.19,1.34 -37.12,2 -56.63,2 -19.64,0 -39.23,-0.66 -58.68,-2 -19.61,-1.52 -39.12,-3.66 -58.65,-6.38l-397.94 -557.06zm-263.91 -978.07c15.39,-2.87 32.52,-4.87 51.45,-6.19 18.85,-1.48 35.77,-2.21 51.22,-2.21 15.39,0 32.64,0.73 52.37,2.21 19.45,1.32 36.92,3.32 52.23,6.19l0 1535.13c-15.31,2.72 -32.78,4.86 -52.23,6.38 -19.72,1.34 -36.98,2 -52.37,2 -15.44,0 -32.37,-0.66 -51.22,-2 -18.93,-1.52 -36.06,-3.66 -51.45,-6.38l0 -1535.13z"/>
   <path class="fil1" d="M5472.48 3935.49c0,0 -2098.08,109.8 -3596.69,-1092.46l370.37 -831.81 605.68 1357.09c261.31,110.94 394.84,163.57 674.94,243.05l-996.25 -2234.41 -1.74 0 -564.97 0 -1.67 0 -490.22 1100.24c-1306.46,-1295.98 -1471.89,-2477.19 -1471.89,-2477.19 0,0 205.74,1568.02 1354.96,2739.84l-2.61 5.46 -432.65 971.26 566.7 0 272.57 -611.36 1.34 -3.13c816.23,637.74 2000.27,1057.02 3712.14,833.41z"/>
  </g>
 </g>
</svg>
